<?xml version="1.0" encoding="UTF-8"?>
<svg id="Layer_1" data-name="Layer 1" xmlns="http://www.w3.org/2000/svg" viewBox="0 0 252 180">
  <defs>
    <style>
      .cls-1 {
        fill: #fefefe;
      }

      .cls-2 {
        fill: #37b6fe;
      }

      .cls-3 {
        fill: #164489;
      }
    </style>
  </defs>
  <path class="cls-1" d="M252,0v180H0V0h252ZM136.56,119.28c3.48-5.78,6.81-11.67,10.23-17.49,3.12-5.33,7.48-11.19,9.39-17.01,5.4-16.42-3.76-34.51-20.3-39.58-8.09-2.48-19.09-.84-25.75,4.58-.25.2-.6,0-.45.62,2.3-1.06,4.43-2.5,6.83-3.37,25.71-9.29,48.5,19.62,36.3,43.02l-17.33,29.23h-3.96v1.92s2.88.12,2.88.12c-2,3.75-4.52,7.26-6.52,11-.14.26-1.08,1.68-.32,1.84l7.56-12v9.36h2.4v-10.32h3.36v-1.92h-4.32ZM124.27,48.07c-9.22.55-18.35,7.09-22.4,15.28-1.83,3.7-4.29,12.18-3.96,16.22.26,3.24,4.69,3.53,5.48.66.74-2.71.74-6.01,1.56-9,3.4-12.3,14.34-19.9,27.15-16.49s19.86,18.72,14.48,30.53c-2.76,6.05-11.41,4.03-10.44-3,.18-1.3,1-2.62,1.14-3.9,1.24-11.36-11.96-18.34-19.3-8.98-5.92,7.54-5.21,18.99-.66,27.02,1.12,1.97,4.61,6.51,6.4,7.76,1.59,1.11,3.24.95,4.31-.73,1.46-2.32-2.51-5.13-3.81-6.73-4.81-5.95-5.96-14.56-3.2-21.64,2.94-7.56,12.22-3.86,10.43,3.23-.26,1.05-.91,2.1-1.07,3.25-1.78,13.04,16.43,19.14,21.78,4.98,7.13-18.85-7.67-39.66-27.89-38.45ZM124.03,56.71c-16.73,1.87-20.79,22.56-16.81,36.12.65,2.21,1.72,5.69,4.8,4.43,2.92-1.19.67-5.56.18-7.73-1.45-6.39-1.25-12.83,1.6-18.81,7-14.71,27.48-8.32,26.12,7.16-.23,2.56-2.14,4.84-.44,7.17,1.17,1.6,3.44.85,4.39-.57,1.8-2.69,2.05-8.67,1.51-11.81-1.71-10-11.29-17.08-21.35-15.95ZM128.32,74.48c-1.94-2.03-4.12-.43-4.97,1.71-3.15,7.98-.66,16.8,5.89,22.2,2.06,1.69,10.1,6.41,11.28,1.93,1.02-3.87-3.73-3.94-6.21-5.32-5.17-2.89-7.33-8.68-6.33-14.42.35-2.01,1.98-4.37.34-6.1ZM125.21,105.89c-3.12.71-2.86,5.94.68,6.19,4.94.35,4.42-7.36-.68-6.19ZM128.08,113.6c-1.01-1.01-3.94-.8-4.23.76v16.07c.82,2.05,4.07,1.73,4.79-.24l.02-15.36c-.04-.44-.27-.92-.58-1.23ZM104.1,119.1c-7.09,1-6.36,13.51,1.59,12.63,7.38-.82,6.76-13.81-1.59-12.63ZM112.56,119.28v12.24c2.09.19,4.02.4,6.07-.29,3.25-1.1,3.46-5.14.18-6.19.36-.5,1.07-.74,1.44-1.32,1.31-2.02-.21-3.95-2.3-4.42-1.8-.41-3.56-.02-5.38-.02ZM88.53,119.31c-.36-.23-2.46.1-3.09-.03l-.72,12.24h2.16s.48-9.12.48-9.12l2.68,8.72c.23.56,1.17.52,1.64.28.68-.34,2.77-7.98,3.24-9.24.38,1.24.19,8.94.61,9.35.13.13,1.75-.06,2.15.01l-.59-12.02c-.25-.36-2.82-.38-3.14.01-1.02,2.55-1.71,5.19-2.51,7.81-.1.34.15.42-.48.35-.09-1.04-2.07-8.13-2.43-8.37ZM149.52,119.28h-7.2v12.24h7.44v-1.92h-5.28v-3.36h4.44c.46,0,.38-1.53.36-1.92h-4.44c-.59,0-.3-2.58-.36-3.12h5.04v-1.92ZM151.44,119.28v12.24h2.16v-9.12l5.08,9.08,2.6.04v-12.24h-2.16v8.64l-4.84-8.6-2.84-.04ZM163.68,131.52c5.36,1.1,11.28-.8,10.53-7.29-.24-2.09-2.45-4.95-4.65-4.95h-5.52s-.36.33-.36.36v11.88Z"/>
  <path class="cls-2" d="M124.27,48.07c20.22-1.21,35.02,19.61,27.89,38.45-5.35,14.15-23.56,8.06-21.78-4.98.16-1.15.8-2.21,1.07-3.25,1.78-7.09-7.49-10.8-10.43-3.23-2.76,7.09-1.6,15.69,3.2,21.64,1.29,1.6,5.27,4.41,3.81,6.73-1.07,1.69-2.72,1.85-4.31.73-1.79-1.25-5.28-5.79-6.4-7.76-4.55-8.03-5.26-19.48.66-27.02,7.34-9.36,20.54-2.38,19.3,8.98-.14,1.28-.96,2.6-1.14,3.9-.96,7.04,7.69,9.06,10.44,3,5.37-11.81-2-27.21-14.48-30.53s-23.76,4.2-27.15,16.49c-.83,2.99-.82,6.29-1.56,9-.79,2.87-5.21,2.58-5.48-.66-.33-4.04,2.13-12.52,3.96-16.22,4.05-8.19,13.18-14.73,22.4-15.28Z"/>
  <path class="cls-2" d="M124.03,56.71c10.06-1.13,19.64,5.95,21.35,15.95.54,3.13.29,9.12-1.51,11.81-.96,1.43-3.23,2.17-4.39.57-1.7-2.32.21-4.6.44-7.17,1.36-15.48-19.12-21.87-26.12-7.16-2.85,5.98-3.05,12.42-1.6,18.81.5,2.18,2.74,6.55-.18,7.73-3.08,1.25-4.15-2.22-4.8-4.43-3.98-13.55.08-34.24,16.81-36.12Z"/>
  <path class="cls-3" d="M136.56,119.28h4.32v1.92h-3.36v10.32h-2.4v-9.36l-7.56,12c-.77-.16.18-1.58.32-1.84,2-3.74,4.52-7.25,6.52-11l-2.88-.12v-1.92h3.96l17.33-29.23c12.2-23.4-10.59-52.31-36.3-43.02-2.4.87-4.53,2.3-6.83,3.37-.15-.62.2-.42.45-.62,6.66-5.42,17.66-7.06,25.75-4.58,16.53,5.07,25.7,23.17,20.3,39.58-1.91,5.82-6.27,11.68-9.39,17.01-3.41,5.83-6.74,11.71-10.23,17.49Z"/>
  <path class="cls-2" d="M128.32,74.48c1.65,1.73.01,4.09-.34,6.1-1,5.75,1.16,11.53,6.33,14.42,2.48,1.39,7.23,1.45,6.21,5.32-1.18,4.48-9.22-.24-11.28-1.93-6.55-5.4-9.04-14.23-5.89-22.2.84-2.14,3.03-3.74,4.97-1.71Z"/>
  <path class="cls-3" d="M88.53,119.31c.37.24,2.34,7.33,2.43,8.37.63.07.38-.01.48-.35.8-2.62,1.5-5.26,2.51-7.81.32-.39,2.89-.37,3.14-.01l.59,12.02c-.4-.07-2.02.11-2.15-.01-.42-.41-.23-8.11-.61-9.35-.47,1.26-2.55,8.91-3.24,9.24-.48.24-1.42.28-1.64-.28l-2.68-8.72-.48,9.12h-2.16s.72-12.24.72-12.24c.63.13,2.72-.2,3.09.03Z"/>
  <path class="cls-3" d="M128.08,113.6c.31.3.54.79.58,1.23l-.02,15.36c-.72,1.97-3.96,2.29-4.79.24v-16.07c.29-1.56,3.22-1.77,4.23-.76Z"/>
  <polygon class="cls-3" points="151.44 119.28 154.28 119.32 159.12 127.92 159.12 119.28 161.28 119.28 161.28 131.52 158.68 131.48 153.6 122.4 153.6 131.52 151.44 131.52 151.44 119.28"/>
  <path class="cls-3" d="M163.68,131.52v-11.88s.33-.36.36-.36h5.52c2.21,0,4.41,2.85,4.65,4.95.75,6.5-5.18,8.39-10.53,7.29ZM166.08,129.84c7.59,1.2,7.72-10.43,0-8.64v8.64Z"/>
  <path class="cls-3" d="M104.1,119.1c8.36-1.18,8.98,11.81,1.59,12.63-7.95.88-8.68-11.63-1.59-12.63ZM104.09,121.01c-3.33.77-3.41,9.34,1.36,8.81,4.2-.46,3.88-10.02-1.36-8.81Z"/>
  <path class="cls-3" d="M112.56,119.28c1.82,0,3.58-.39,5.38.02,2.09.47,3.61,2.4,2.3,4.42-.37.58-1.08.82-1.44,1.32,3.28,1.05,3.07,5.09-.18,6.19-2.05.69-3.98.48-6.07.29v-12.24ZM114.72,120.96c.17,2-.88,3.9,1.99,3.31,1.16-.24,1.85-1,1.61-2.22-.28-1.44-2.52-1.06-3.6-1.09ZM114.72,126.12c-.25.81.18,2.75,0,3.72,1.52.2,4.1.03,4.05-2.04s-3.83-2.39-4.05-1.68Z"/>
  <path class="cls-3" d="M149.52,119.28v1.92h-5.04c.06.54-.23,3.12.36,3.12h4.44c.02.39.1,1.92-.36,1.92h-4.44v3.36h5.28v1.92h-7.44v-12.24h7.2Z"/>
  <path class="cls-2" d="M125.21,105.89c5.09-1.16,5.62,6.55.68,6.19-3.54-.25-3.8-5.48-.68-6.19Z"/>
  <path class="cls-1" d="M166.08,129.84v-8.64c7.72-1.79,7.59,9.84,0,8.64Z"/>
  <path class="cls-1" d="M104.09,121.01c5.25-1.21,5.57,8.35,1.36,8.81-4.77.53-4.69-8.04-1.36-8.81Z"/>
  <path class="cls-1" d="M114.72,126.12c.22-.71,4.01-.32,4.05,1.68s-2.53,2.25-4.05,2.04c.18-.97-.25-2.91,0-3.72Z"/>
  <path class="cls-1" d="M114.72,120.96c1.08.03,3.32-.36,3.6,1.09.23,1.21-.46,1.98-1.61,2.22-2.87.6-1.82-1.31-1.99-3.31Z"/>
</svg>